<?xml version="1.0" encoding="UTF-8" standalone="no"?>
<!DOCTYPE svg PUBLIC "-//W3C//DTD SVG 1.1//EN"
 "http://www.w3.org/Graphics/SVG/1.1/DTD/svg11.dtd">
<!-- Generated by graphviz version 2.40.1 (20161225.0304)
 -->
<!-- Title: G Pages: 1 -->
<svg width="140pt" height="501pt"
 viewBox="0.00 0.00 139.64 501.41" xmlns="http://www.w3.org/2000/svg" xmlns:xlink="http://www.w3.org/1999/xlink">
<g id="graph0" class="graph" transform="scale(1 1) rotate(0) translate(4 497.4133)">
<title>G</title>
<polygon fill="#ffffff" stroke="transparent" points="-4,4 -4,-497.4133 135.6396,-497.4133 135.6396,4 -4,4"/>
<!-- 0 -->
<g id="node1" class="node">
<title>0</title>
<ellipse fill="#000000" stroke="#000000" cx="74.8198" cy="-491.6133" rx="1.8" ry="1.8"/>
</g>
<!-- 1 -->
<g id="node2" class="node">
<title>1</title>
<ellipse fill="none" stroke="#000000" cx="74.8198" cy="-415.3366" rx="31.6406" ry="37.4533"/>
<text text-anchor="middle" x="74.8198" y="-426.6366" font-family="Times,serif" font-size="14.00" fill="#000000">0</text>
<text text-anchor="middle" x="74.8198" y="-411.6366" font-family="Times,serif" font-size="14.00" fill="#000000">&#45;&#45;&#45;</text>
<text text-anchor="middle" x="74.8198" y="-396.6366" font-family="Times,serif" font-size="14.00" fill="#000000">False</text>
</g>
<!-- 0&#45;&gt;1 -->
<g id="edge1" class="edge">
<title>0&#45;&gt;1</title>
<path fill="none" stroke="#000000" d="M74.8198,-489.7278C74.8198,-485.5697 74.8198,-475.0329 74.8198,-463.1547"/>
<polygon fill="#000000" stroke="#000000" points="78.3199,-462.9721 74.8198,-452.9722 71.3199,-462.9722 78.3199,-462.9721"/>
</g>
<!-- 1&#45;&gt;1 -->
<g id="edge2" class="edge">
<title>1&#45;&gt;1</title>
<path fill="none" stroke="#000000" d="M105.4692,-425.4591C116.0748,-425.5663 124.6396,-422.1921 124.6396,-415.3366 124.6396,-410.8377 120.9511,-407.8381 115.4178,-406.3377"/>
<polygon fill="#000000" stroke="#000000" points="115.7988,-402.8586 105.4692,-405.2141 115.0132,-409.8144 115.7988,-402.8586"/>
<text text-anchor="middle" x="128.1396" y="-411.6366" font-family="Times,serif" font-size="14.00" fill="#000000">0</text>
</g>
<!-- 2 -->
<g id="node3" class="node">
<title>2</title>
<ellipse fill="none" stroke="#000000" cx="31.8198" cy="-289.3833" rx="31.6406" ry="37.4533"/>
<text text-anchor="middle" x="31.8198" y="-300.6833" font-family="Times,serif" font-size="14.00" fill="#000000">1</text>
<text text-anchor="middle" x="31.8198" y="-285.6833" font-family="Times,serif" font-size="14.00" fill="#000000">&#45;&#45;&#45;</text>
<text text-anchor="middle" x="31.8198" y="-270.6833" font-family="Times,serif" font-size="14.00" fill="#000000">False</text>
</g>
<!-- 1&#45;&gt;2 -->
<g id="edge3" class="edge">
<title>1&#45;&gt;2</title>
<path fill="none" stroke="#000000" d="M62.8419,-380.2516C57.9495,-365.921 52.2327,-349.1758 47.049,-333.9917"/>
<polygon fill="#000000" stroke="#000000" points="50.2767,-332.613 43.7335,-324.2802 43.6521,-334.8747 50.2767,-332.613"/>
<text text-anchor="middle" x="58.3198" y="-348.66" font-family="Times,serif" font-size="14.00" fill="#000000">1</text>
</g>
<!-- 2&#45;&gt;2 -->
<g id="edge4" class="edge">
<title>2&#45;&gt;2</title>
<path fill="none" stroke="#000000" d="M62.4692,-301.0055C73.0748,-301.1284 81.6396,-297.2544 81.6396,-289.3833 81.6396,-284.2179 77.9511,-280.7739 72.4178,-279.0512"/>
<polygon fill="#000000" stroke="#000000" points="72.8363,-275.5763 62.4692,-277.7611 71.936,-282.5181 72.8363,-275.5763"/>
<text text-anchor="middle" x="85.1396" y="-285.6833" font-family="Times,serif" font-size="14.00" fill="#000000">0</text>
</g>
<!-- 3 -->
<g id="node4" class="node">
<title>3</title>
<ellipse fill="none" stroke="#000000" cx="31.8198" cy="-163.43" rx="31.6406" ry="37.4533"/>
<text text-anchor="middle" x="31.8198" y="-174.73" font-family="Times,serif" font-size="14.00" fill="#000000">2</text>
<text text-anchor="middle" x="31.8198" y="-159.73" font-family="Times,serif" font-size="14.00" fill="#000000">&#45;&#45;&#45;</text>
<text text-anchor="middle" x="31.8198" y="-144.73" font-family="Times,serif" font-size="14.00" fill="#000000">False</text>
</g>
<!-- 2&#45;&gt;3 -->
<g id="edge5" class="edge">
<title>2&#45;&gt;3</title>
<path fill="none" stroke="#000000" d="M31.8198,-251.5931C31.8198,-239.0143 31.8198,-224.8303 31.8198,-211.5757"/>
<polygon fill="#000000" stroke="#000000" points="35.3199,-211.1934 31.8198,-201.1935 28.3199,-211.1935 35.3199,-211.1934"/>
<text text-anchor="middle" x="35.3198" y="-222.7066" font-family="Times,serif" font-size="14.00" fill="#000000">1</text>
</g>
<!-- 3&#45;&gt;3 -->
<g id="edge6" class="edge">
<title>3&#45;&gt;3</title>
<path fill="none" stroke="#000000" d="M62.4692,-175.0521C73.0748,-175.1751 81.6396,-171.3011 81.6396,-163.43 81.6396,-158.2646 77.9511,-154.8205 72.4178,-153.0979"/>
<polygon fill="#000000" stroke="#000000" points="72.8363,-149.623 62.4692,-151.8078 71.936,-156.5648 72.8363,-149.623"/>
<text text-anchor="middle" x="85.1396" y="-159.73" font-family="Times,serif" font-size="14.00" fill="#000000">0</text>
</g>
<!-- 4 -->
<g id="node5" class="node">
<title>4</title>
<ellipse fill="none" stroke="#000000" cx="74.8198" cy="-37.4767" rx="29.8983" ry="37.4533"/>
<text text-anchor="middle" x="74.8198" y="-48.7767" font-family="Times,serif" font-size="14.00" fill="#000000">3</text>
<text text-anchor="middle" x="74.8198" y="-33.7767" font-family="Times,serif" font-size="14.00" fill="#000000">&#45;&#45;&#45;</text>
<text text-anchor="middle" x="74.8198" y="-18.7767" font-family="Times,serif" font-size="14.00" fill="#000000">True</text>
</g>
<!-- 3&#45;&gt;4 -->
<g id="edge7" class="edge">
<title>3&#45;&gt;4</title>
<path fill="none" stroke="#000000" d="M43.7977,-128.345C48.7309,-113.895 54.5022,-96.9899 59.7201,-81.7058"/>
<polygon fill="#000000" stroke="#000000" points="63.1361,-82.5327 63.0548,-71.9382 56.5115,-80.2711 63.1361,-82.5327"/>
<text text-anchor="middle" x="58.3198" y="-96.7533" font-family="Times,serif" font-size="14.00" fill="#000000">1</text>
</g>
<!-- 4&#45;&gt;1 -->
<g id="edge9" class="edge">
<title>4&#45;&gt;1</title>
<path fill="none" stroke="#000000" d="M86.081,-72.3783C90.7133,-88.4983 95.5252,-108.0064 97.8198,-125.9533 109.1439,-214.5242 109.1439,-238.2891 97.8198,-326.86 95.9896,-341.1749 92.5578,-356.4832 88.8931,-370.2731"/>
<polygon fill="#000000" stroke="#000000" points="85.4924,-369.439 86.203,-380.01 92.2397,-371.3032 85.4924,-369.439"/>
<text text-anchor="middle" x="110.3198" y="-222.7066" font-family="Times,serif" font-size="14.00" fill="#000000">1</text>
</g>
<!-- 4&#45;&gt;4 -->
<g id="edge8" class="edge">
<title>4&#45;&gt;4</title>
<path fill="none" stroke="#000000" d="M103.2215,-49.0761C113.8058,-49.4564 122.5183,-45.5899 122.5183,-37.4767 122.5183,-32.1523 118.7661,-28.6569 113.1951,-26.9905"/>
<polygon fill="#000000" stroke="#000000" points="113.548,-23.5082 103.2215,-25.8772 112.7714,-30.465 113.548,-23.5082"/>
<text text-anchor="middle" x="126.0183" y="-33.7767" font-family="Times,serif" font-size="14.00" fill="#000000">0</text>
</g>
</g>
</svg>
